# xmcd
#
# Track frame offsets:
#	150
#	12983
#	26937
#	39236
#	52491
#	66781
#	80808
#	94303
#	109063
#	123712
#	137639
#	151690
#	163941
#	177869
#	190729
#	201901
#	214902
#	226966
#	240060
#	252791
#
# Disc length: 3538 seconds
#
# Revision: 0
# Processed by: cddbd v1.5.2PL0 Copyright (c) Steve Scherf et al.
# Submitted via: EZCDAudioConverter 2.2.2.1
#
DISCID=190dd014
DTITLE=blind willie mctell - the definitive blind willie mctell [CD2]
DYEAR=1994
DGENRE=Blues
TTITLE0=lord have mercy if you please
TTITLE1=don't you see how this world made a change
TTITLE2=savannah mama
TTITLE3=broke down engine
TTITLE4=broke down engine no. 2
TTITLE5=my baby's gone
TTITLE6=love makin' mama # 1
TTITLE7=love makin' mama # 2
TTITLE8=death room blues # 1
TTITLE9=death room blues # 2
TTITLE10=death cell blues
TTITLE11=lord send me an angel # 1
TTITLE12=lord send me an angel # 2
TTITLE13=b and o blues no. 2 # 1
TTITLE14=b and o blues no. 2 # 2
TTITLE15=weary hearted blues
TTITLE16=bell st. lightnin'
TTITLE17=southern can mama
TTITLE18=runnin' me crazy
TTITLE19=east st. louis blues
EXTD=
EXTT0=
EXTT1=
EXTT2=
EXTT3=
EXTT4=
EXTT5=
EXTT6=
EXTT7=
EXTT8=
EXTT9=
EXTT10=
EXTT11=
EXTT12=
EXTT13=
EXTT14=
EXTT15=
EXTT16=
EXTT17=
EXTT18=
EXTT19=
PLAYORDER=
